<svg xmlns="http://www.w3.org/2000/svg" width="100" height="50" viewBox="0 0 100 50"><rect width="100%" height="100%" fill="#EEE"/><path fill="#31343C" d="M25.51 20.195v7.82h-1.56v-3.25h-3.19v3.25h-1.57v-7.82h1.57v3.36h3.19v-3.36h1.56Zm3.91 7.93q-1.25 0-2.01-.8-.75-.81-.75-2.05v-.21q0-1.3.71-2.14.72-.83 1.91-.83 1.18 0 1.83.71.65.71.65 1.92v.85h-3.47l-.01.03q.04.58.38.95t.93.37q.52 0 .86-.11.35-.1.76-.33l.42.97q-.35.29-.93.48-.57.19-1.28.19Zm-.14-4.82q-.43 0-.68.33-.26.34-.32.88l.02.02h1.92v-.13q0-.5-.23-.8-.23-.3-.71-.3Zm8.37 4.71h-1.57q-.08-.2-.14-.42-.07-.22-.09-.45-.24.42-.64.7-.39.28-.94.28-.92 0-1.41-.47-.49-.47-.49-1.28 0-.85.65-1.32.66-.47 1.92-.47h.88v-.46q0-.42-.22-.65-.22-.23-.65-.23-.38 0-.59.18-.2.19-.2.51h-1.52v-.03q-.04-.74.63-1.27.68-.54 1.78-.54 1.04 0 1.69.53.65.53.65 1.51v2.4q0 .41.07.77.06.36.19.71Zm-3-1.05q.41 0 .74-.2.32-.21.43-.47v-.83h-.88q-.49 0-.75.25t-.26.61q0 .29.19.47.2.17.53.17Zm3.69-1.69v-.12q0-1.37.59-2.22.6-.84 1.68-.84.43 0 .78.19.35.19.61.54v-3.19h1.58v8.38h-1.35l-.13-.71q-.27.4-.65.61-.37.21-.85.21-1.07 0-1.67-.78-.59-.79-.59-2.07Zm1.56-.12v.12q0 .76.26 1.2.26.43.84.43.34 0 .59-.13.25-.14.41-.4v-2.48q-.16-.27-.41-.43-.25-.15-.58-.15-.58 0-.84.51-.27.51-.27 1.33Zm7.46 2.97q-1.25 0-2.01-.8-.75-.81-.75-2.05v-.21q0-1.3.71-2.14.72-.83 1.91-.83 1.18 0 1.83.71.65.71.65 1.92v.85h-3.47l-.01.03q.04.58.38.95t.93.37q.52 0 .86-.11.35-.1.76-.33l.42.97q-.35.29-.93.48-.57.19-1.28.19Zm-.14-4.82q-.43 0-.68.33-.26.34-.32.88l.02.02h1.92v-.13q0-.5-.23-.8-.23-.3-.71-.3Zm6.61-1.14-.16 1.39-.58-.02q-.35 0-.57.15-.23.14-.34.4v3.93h-1.57v-5.81h1.46l.07.86q.2-.46.53-.71.32-.26.75-.26.11 0 .21.02.1.02.2.05Zm5.07-1.97v6.62h3.48v1.2h-5.05v-7.82h1.57Zm4.01 4.97v-.11q0-1.3.73-2.13.72-.83 2.01-.83 1.28 0 2.02.83.73.83.73 2.13v.11q0 1.31-.73 2.14-.73.82-2.01.82-1.29 0-2.02-.82-.73-.83-.73-2.14Zm1.57-.11v.11q0 .8.27 1.28.28.48.91.48.6 0 .89-.48.28-.49.28-1.28v-.11q0-.77-.29-1.26-.28-.49-.89-.49t-.89.49q-.28.49-.28 1.26Zm4.64.22v-.12q0-1.37.6-2.22.6-.84 1.68-.84.49 0 .86.22t.63.63l.13-.74h1.35v5.78q0 1.14-.75 1.76-.74.62-2.07.62-.44 0-.93-.12-.49-.12-.91-.33l.29-1.17q.36.17.73.26.37.08.81.08.65 0 .95-.26.3-.27.3-.84v-.53q-.25.33-.6.5-.35.17-.8.17-1.07 0-1.67-.78-.6-.79-.6-2.07Zm1.57-.12v.12q0 .76.26 1.2.26.43.84.43.35 0 .6-.13t.4-.38v-2.53q-.15-.26-.4-.4-.25-.15-.59-.15-.58 0-.84.51-.27.51-.27 1.33Zm4.64.01v-.11q0-1.3.73-2.13.72-.83 2-.83 1.29 0 2.02.83t.73 2.13v.11q0 1.31-.72 2.14-.73.82-2.02.82-1.28 0-2.01-.82-.73-.83-.73-2.14Zm1.56-.11v.11q0 .8.28 1.28t.9.48q.61 0 .89-.48.29-.49.29-1.28v-.11q0-.77-.29-1.26-.28-.49-.9-.49-.6 0-.89.49-.28.49-.28 1.26Z"/></svg>