<svg xmlns="http://www.w3.org/2000/svg" width="600" height="300" viewBox="0 0 600 300"><rect width="100%" height="100%" fill="#EEE"/><path fill="#31343C" d="M157.515 122.045v45.5h-9.1v-18.91h-18.56v18.91h-9.12v-45.5h9.12v19.56h18.56v-19.56h9.1Zm22.75 46.16q-7.31 0-11.69-4.69-4.37-4.69-4.37-11.91v-1.25q0-7.53 4.14-12.4 4.14-4.88 11.11-4.85 6.84 0 10.62 4.13 3.78 4.12 3.78 11.15v4.97h-20.19l-.06.19q.25 3.34 2.24 5.5 1.98 2.16 5.39 2.16 3.03 0 5.03-.61 2-.61 4.37-1.93l2.47 5.63q-2.06 1.69-5.4 2.8-3.35 1.11-7.44 1.11Zm-.81-28.07q-2.54 0-4 1.94-1.47 1.94-1.82 5.09l.1.16h11.18v-.81q0-2.91-1.36-4.64-1.35-1.74-4.1-1.74Zm48.68 27.41h-9.12q-.5-1.16-.86-2.44t-.52-2.62q-1.4 2.47-3.7 4.09-2.3 1.63-5.48 1.63-5.32 0-8.19-2.74-2.88-2.73-2.88-7.45 0-4.97 3.83-7.7 3.83-2.74 11.17-2.74h5.1v-2.69q0-2.43-1.28-3.78-1.29-1.34-3.79-1.34-2.21 0-3.42 1.08-1.2 1.07-1.2 2.98l-8.81-.03-.03-.19q-.22-4.28 3.71-7.39 3.94-3.11 10.35-3.11 6.06 0 9.84 3.08 3.78 3.08 3.78 8.77v13.96q0 2.38.36 4.47.36 2.1 1.14 4.16Zm-17.47-6.09q2.41 0 4.29-1.19 1.87-1.19 2.53-2.75v-4.78h-5.1q-2.9 0-4.4 1.45-1.5 1.45-1.5 3.52 0 1.68 1.12 2.71 1.13 1.04 3.06 1.04Zm21.47-9.88v-.66q0-8 3.46-12.9 3.45-4.91 9.73-4.91 2.53 0 4.56 1.1 2.03 1.09 3.57 3.12v-18.53h9.15v48.75h-7.84l-.75-4.13q-1.6 2.35-3.77 3.57-2.17 1.22-4.98 1.22-6.22 0-9.67-4.57-3.46-4.56-3.46-12.06Zm9.1-.66v.66q0 4.44 1.5 6.99 1.5 2.54 4.87 2.54 1.97 0 3.44-.79 1.47-.8 2.41-2.33v-14.41q-.94-1.59-2.4-2.48-1.45-.89-3.39-.89-3.34 0-4.89 2.96-1.54 2.97-1.54 7.75Zm43.4 17.29q-7.31 0-11.68-4.69-4.38-4.69-4.38-11.91v-1.25q0-7.53 4.14-12.4 4.14-4.88 11.11-4.85 6.84 0 10.63 4.13 3.78 4.12 3.78 11.15v4.97h-20.19l-.06.19q.25 3.34 2.23 5.5 1.99 2.16 5.39 2.16 3.03 0 5.03-.61 2-.61 4.38-1.93l2.47 5.63q-2.07 1.69-5.41 2.8-3.34 1.11-7.44 1.11Zm-.81-28.07q-2.53 0-4 1.94-1.47 1.94-1.81 5.09l.09.16h11.19v-.81q0-2.91-1.36-4.64-1.36-1.74-4.11-1.74Zm38.47-6.65-.97 8.09-3.34-.09q-2.03 0-3.35.84-1.31.84-2 2.38v22.84h-9.09v-33.81h8.47l.4 5q1.19-2.66 3.08-4.14 1.89-1.49 4.36-1.49.69 0 1.27.11.58.11 1.17.27Zm29.47-11.44v38.5h20.25v7h-29.38v-45.5h9.13Zm23.34 28.94v-.66q0-7.56 4.22-12.39 4.22-4.83 11.69-4.83 7.5 0 11.75 4.81 4.25 4.82 4.25 12.41v.66q0 7.62-4.24 12.42-4.23 4.8-11.7 4.8-7.5 0-11.73-4.8-4.24-4.8-4.24-12.42Zm9.1-.66v.66q0 4.62 1.62 7.42 1.63 2.8 5.25 2.8 3.53 0 5.17-2.82 1.64-2.81 1.64-7.4v-.66q0-4.5-1.65-7.34-1.66-2.85-5.22-2.85-3.53 0-5.17 2.86-1.64 2.86-1.64 7.33Zm27.03 1.25v-.66q0-8 3.48-12.9 3.49-4.91 9.77-4.91 2.84 0 5 1.28 2.15 1.28 3.68 3.66l.72-4.31h7.88v33.65q0 6.6-4.33 10.21-4.33 3.61-12.05 3.61-2.56 0-5.43-.71-2.88-.7-5.32-1.92l1.69-6.81q2.09 1 4.27 1.51 2.17.52 4.73.52 3.75 0 5.52-1.56 1.76-1.56 1.76-4.88v-3.06q-1.5 1.91-3.53 2.91-2.03 1-4.66 1-6.21 0-9.7-4.58-3.48-4.58-3.48-12.05Zm9.12-.66v.66q0 4.44 1.5 6.99 1.5 2.54 4.88 2.54 2.09 0 3.54-.76 1.46-.77 2.33-2.24v-14.69q-.87-1.53-2.33-2.37-1.45-.84-3.48-.84-3.34 0-4.89 2.96-1.55 2.97-1.55 7.75Zm27 .07v-.66q0-7.56 4.22-12.39 4.22-4.83 11.69-4.83 7.5 0 11.75 4.81 4.25 4.82 4.25 12.41v.66q0 7.62-4.24 12.42-4.23 4.8-11.7 4.8-7.5 0-11.73-4.8-4.24-4.8-4.24-12.42Zm9.1-.66v.66q0 4.62 1.62 7.42 1.63 2.8 5.25 2.8 3.53 0 5.17-2.82 1.64-2.81 1.64-7.4v-.66q0-4.5-1.65-7.34-1.66-2.85-5.22-2.85-3.53 0-5.17 2.86-1.64 2.86-1.64 7.33Z"/></svg>